<svg xmlns="http://www.w3.org/2000/svg" viewBox="0 0 100 100">
  <rect width="100" height="100" rx="20" fill="#F7A600"/>
  <!-- Interlocking B letters -->
  <path d="M25 25H55C65 25 72 32 72 40C72 46 68 50 62 52C69 54 74 60 74 68C74 77 66 83 55 83H25V25Z" fill="rgba(0,0,0,0.85)"/>
  <path d="M35 35H52C57 35 60 38 60 42C60 46 57 48 52 48H35V35Z" fill="#F7A600"/>
  <path d="M35 55H54C60 55 63 58 63 63C63 68 60 71 54 71H35V55Z" fill="#F7A600"/>
  <!-- Second B offset -->
  <path d="M50 25H80C90 25 95 32 95 42C95 48 90 52 83 53" fill="none" stroke="rgba(0,0,0,0.6)" stroke-width="5" stroke-linecap="round"/>
</svg>