<svg xmlns="http://www.w3.org/2000/svg" viewBox="0 0 100 100">
  <rect width="100" height="100" rx="20" fill="#000"/>
  <!-- Shield shape -->
  <path d="M50 12L20 28V52C20 70 34 84 50 88C66 84 80 70 80 52V28L50 12Z" fill="none" stroke="#fff" stroke-width="3"/>
  <path d="M50 22L30 34V50C30 62 40 72 50 76C60 72 70 62 70 50V34L50 22Z" fill="rgba(255,255,255,0.1)"/>
  <!-- Lock icon -->
  <rect x="40" y="45" width="20" height="18" rx="3" fill="white"/>
  <path d="M44 45V38C44 34 47 31 50 31C53 31 56 34 56 38V45" fill="none" stroke="white" stroke-width="3"/>
  <circle cx="50" cy="54" r="2.5" fill="#000"/>
</svg>