<svg xmlns="http://www.w3.org/2000/svg" viewBox="0 0 100 100">
  <defs>
    <linearGradient id="mg" x1="0%" y1="0%" x2="100%" y2="100%">
      <stop offset="0%" stop-color="#F6851A"/>
      <stop offset="100%" stop-color="#E2761B"/>
    </linearGradient>
  </defs>
  <rect width="100" height="100" rx="20" fill="url(#mg)"/>
  <!-- Fox face outline -->
  <path d="M50 15L25 35V65L50 85L75 65V35L50 15Z" fill="none" stroke="rgba(255,255,255,0.9)" stroke-width="2.5"/>
  <!-- Ears -->
  <path d="M30 35L15 20L35 30" fill="rgba(255,255,255,0.2)"/>
  <path d="M70 35L85 20L65 30" fill="rgba(255,255,255,0.2)"/>
  <!-- Eyes -->
  <ellipse cx="38" cy="48" rx="5" ry="6" fill="white"/>
  <ellipse cx="62" cy="48" rx="5" ry="6" fill="white"/>
  <circle cx="38" cy="49" r="2.5" fill="#F6851A"/>
  <circle cx="62" cy="49" r="2.5" fill="#F6851A"/>
  <!-- Nose -->
  <ellipse cx="50" cy="60" rx="4" ry="3" fill="white"/>
  <!-- Mouth -->
  <path d="M50 63Q42 70 35 68" fill="none" stroke="white" stroke-width="1.5" stroke-linecap="round"/>
  <path d="M50 63Q58 70 65 68" fill="none" stroke="white" stroke-width="1.5" stroke-linecap="round"/>
</svg>