<svg xmlns="http://www.w3.org/2000/svg" viewBox="0 0 32 32"><rect width="32" height="32" rx="7" fill="#F6851A"/><path d="M22.5 9L17 14L18 11L22.5 9Z" fill="#E2762B"/><path d="M9.5 9L15 14L14 11L9.5 9Z" fill="#E4762B"/><path d="M20 17L18 20L22 21L23.5 17H20Z" fill="#763D16"/><path d="M8.5 17L10 20L14 20L12 17H8.5Z" fill="#763D16"/><path d="M12 15L10.5 17H15L14.5 13L12 15Z" fill="#763D16"/><path d="M16 15L16.5 17L20.5 17L19 15H16Z" fill="#763D16"/><path d="M12 20L14 21.5L9.5 20.5L12 20Z" fill="#C0AD9E"/><path d="M16 20L18 20L15.5 21L16 20Z" fill="#C0AD9E"/></svg>